<svg xmlns="http://www.w3.org/2000/svg" xmlns:xlink="http://www.w3.org/1999/xlink" width="500" zoomAndPan="magnify" viewBox="0 0 375 374.999991" height="500" preserveAspectRatio="xMidYMid meet" version="1.0"><defs><g/><clipPath id="910ad74d08"><path d="M 70.839844 143.648438 L 118.089844 143.648438 L 118.089844 234.398438 L 70.839844 234.398438 Z M 70.839844 143.648438 " clip-rule="nonzero"/></clipPath><clipPath id="b062b34048"><path d="M 71 152.058594 L 75 152.058594 L 75 162 L 71 162 Z M 71 152.058594 " clip-rule="nonzero"/></clipPath><clipPath id="1becd9e5b2"><path d="M 96 185 L 105.769531 185 L 105.769531 189 L 96 189 Z M 96 185 " clip-rule="nonzero"/></clipPath><clipPath id="c63399bee6"><path d="M 69.835938 213 L 79 213 L 79 221 L 69.835938 221 Z M 69.835938 213 " clip-rule="nonzero"/></clipPath><clipPath id="e1e73fafac"><path d="M 69.835938 209 L 79 209 L 79 217 L 69.835938 217 Z M 69.835938 209 " clip-rule="nonzero"/></clipPath><clipPath id="4822bb2a3f"><path d="M 69.835938 217 L 79 217 L 79 221 L 69.835938 221 Z M 69.835938 217 " clip-rule="nonzero"/></clipPath><clipPath id="295db37b63"><path d="M 69.835938 208 L 73 208 L 73 212 L 69.835938 212 Z M 69.835938 208 " clip-rule="nonzero"/></clipPath><clipPath id="54bb217234"><path d="M 69.835938 221 L 75 221 L 75 224.058594 L 69.835938 224.058594 Z M 69.835938 221 " clip-rule="nonzero"/></clipPath><clipPath id="53421f61f0"><path d="M 69.835938 165 L 93 165 L 93 208 L 69.835938 208 Z M 69.835938 165 " clip-rule="nonzero"/></clipPath><clipPath id="f7af38f7a6"><path d="M 37.5 183 L 48 183 L 48 187 L 37.5 187 Z M 37.5 183 " clip-rule="nonzero"/></clipPath><clipPath id="ee2d58aaf1"><path d="M 61 213 L 70.5 213 L 70.5 221 L 61 221 Z M 61 213 " clip-rule="nonzero"/></clipPath><clipPath id="80756b7d87"><path d="M 61 209 L 70.5 209 L 70.5 217 L 61 217 Z M 61 209 " clip-rule="nonzero"/></clipPath><clipPath id="9dcfd12c35"><path d="M 67 217 L 70.5 217 L 70.5 221 L 67 221 Z M 67 217 " clip-rule="nonzero"/></clipPath><clipPath id="14930fd370"><path d="M 61 208 L 70.5 208 L 70.5 212 L 61 212 Z M 61 208 " clip-rule="nonzero"/></clipPath><clipPath id="f4dbba2d9a"><path d="M 65 221 L 70.5 221 L 70.5 224.058594 L 65 224.058594 Z M 65 221 " clip-rule="nonzero"/></clipPath><clipPath id="0816d0d4ef"><path d="M 51 165 L 70.5 165 L 70.5 208 L 51 208 Z M 51 165 " clip-rule="nonzero"/></clipPath></defs><g clip-path="url(#910ad74d08)"><path fill="#023047" d="M 70.683594 232.722656 L 70.683594 145.515625 C 70.679688 145.261719 70.726562 145.019531 70.824219 144.78125 C 70.917969 144.546875 71.054688 144.339844 71.234375 144.15625 C 71.417969 143.976562 71.625 143.839844 71.859375 143.742188 C 72.09375 143.644531 72.339844 143.597656 72.59375 143.601562 C 74.085938 143.601562 75.570312 143.675781 77.054688 143.820312 C 78.539062 143.96875 80.011719 144.1875 81.472656 144.476562 C 82.933594 144.769531 84.378906 145.132812 85.804688 145.5625 C 87.230469 145.996094 88.632812 146.5 90.007812 147.070312 C 91.386719 147.640625 92.730469 148.277344 94.042969 148.980469 C 95.359375 149.683594 96.636719 150.449219 97.875 151.277344 C 99.113281 152.105469 100.308594 152.992188 101.460938 153.9375 C 102.613281 154.882812 103.714844 155.882812 104.769531 156.9375 C 105.824219 157.992188 106.824219 159.09375 107.769531 160.246094 C 108.714844 161.398438 109.601562 162.59375 110.425781 163.835938 C 111.253906 165.074219 112.019531 166.351562 112.722656 167.664062 C 113.425781 168.980469 114.0625 170.324219 114.632812 171.703125 C 115.203125 173.078125 115.703125 174.480469 116.136719 175.90625 C 116.570312 177.332031 116.929688 178.777344 117.222656 180.238281 C 117.511719 181.699219 117.730469 183.171875 117.875 184.65625 C 118.023438 186.140625 118.09375 187.625 118.09375 189.117188 C 118.09375 190.605469 118.023438 192.09375 117.875 193.578125 C 117.730469 195.058594 117.511719 196.53125 117.222656 197.996094 C 116.929688 199.457031 116.570312 200.898438 116.136719 202.328125 C 115.703125 203.753906 115.203125 205.152344 114.632812 206.53125 C 114.0625 207.90625 113.425781 209.253906 112.722656 210.566406 C 112.019531 211.882812 111.253906 213.160156 110.425781 214.398438 C 109.601562 215.636719 108.714844 216.832031 107.769531 217.984375 C 106.824219 219.136719 105.824219 220.242188 104.769531 221.296875 C 103.714844 222.351562 102.613281 223.347656 101.460938 224.296875 C 100.308594 225.242188 99.113281 226.128906 97.875 226.957031 C 96.636719 227.785156 95.359375 228.550781 94.042969 229.253906 C 92.730469 229.957031 91.386719 230.59375 90.007812 231.164062 C 88.632812 231.734375 87.230469 232.234375 85.804688 232.667969 C 84.378906 233.101562 82.933594 233.464844 81.472656 233.753906 C 80.011719 234.046875 78.539062 234.265625 77.054688 234.410156 C 75.570312 234.558594 74.085938 234.632812 72.59375 234.632812 C 72.339844 234.632812 72.097656 234.585938 71.863281 234.492188 C 71.628906 234.394531 71.421875 234.257812 71.242188 234.078125 C 71.0625 233.898438 70.921875 233.691406 70.824219 233.457031 C 70.730469 233.222656 70.679688 232.976562 70.683594 232.722656 Z M 70.683594 232.722656 " fill-opacity="1" fill-rule="nonzero"/></g><g clip-path="url(#b062b34048)"><path fill="#cbc9c9" d="M 73.554688 161.542969 L 73.671875 161.539062 L 74.859375 153.933594 C 74.957031 153.304688 74.691406 152.660156 74.152344 152.328125 C 73.894531 152.164062 73.582031 152.074219 73.25 152.089844 C 72.921875 152.101562 72.617188 152.210938 72.371094 152.394531 C 71.859375 152.769531 71.644531 153.433594 71.789062 154.050781 L 73.554688 161.542969 " fill-opacity="1" fill-rule="nonzero"/></g><path fill="#cbc9c9" d="M 90.457031 159.578125 C 90.855469 159.085938 90.949219 158.394531 90.648438 157.835938 C 90.503906 157.566406 90.28125 157.332031 89.988281 157.179688 C 89.695312 157.023438 89.375 156.96875 89.070312 157.003906 C 88.441406 157.070312 87.921875 157.539062 87.738281 158.144531 L 85.519531 165.519531 L 85.625 165.574219 L 90.457031 159.578125 " fill-opacity="1" fill-rule="nonzero"/><path fill="#cbc9c9" d="M 102.179688 170.855469 C 102.191406 170.546875 102.113281 170.234375 101.9375 169.953125 C 101.761719 169.675781 101.511719 169.46875 101.230469 169.34375 C 100.648438 169.089844 99.96875 169.234375 99.507812 169.667969 L 93.894531 174.945312 L 93.960938 175.042969 L 101.144531 172.269531 C 101.734375 172.042969 102.160156 171.488281 102.179688 170.855469 " fill-opacity="1" fill-rule="nonzero"/><g clip-path="url(#1becd9e5b2)"><path fill="#cbc9c9" d="M 105.898438 186.996094 C 105.882812 186.664062 105.769531 186.359375 105.589844 186.113281 C 105.214844 185.601562 104.550781 185.386719 103.9375 185.53125 L 96.441406 187.292969 L 96.441406 187.414062 L 104.050781 188.601562 C 104.679688 188.699219 105.324219 188.4375 105.660156 187.894531 C 105.820312 187.632812 105.910156 187.324219 105.898438 186.996094 " fill-opacity="1" fill-rule="nonzero"/></g><g clip-path="url(#c63399bee6)"><path fill="#cbc9c9" d="M 77.789062 213.441406 C 77.71875 213.441406 77.628906 213.457031 77.511719 213.488281 L 75.328125 214.113281 C 71.296875 215.257812 67.125 216.445312 63.011719 217.582031 C 62.476562 217.730469 62.445312 217.984375 62.429688 218.542969 C 62.425781 218.644531 62.421875 218.75 62.410156 218.855469 C 62.417969 220.34375 62.828125 220.464844 63.285156 220.464844 C 63.515625 220.464844 63.804688 220.417969 64.164062 220.316406 C 68.390625 219.128906 72.613281 217.9375 76.835938 216.746094 C 77.410156 216.582031 77.882812 216.15625 78.128906 215.574219 C 78.398438 214.945312 78.371094 214.246094 78.058594 213.65625 C 77.941406 213.441406 77.855469 213.441406 77.789062 213.441406 " fill-opacity="1" fill-rule="nonzero"/></g><g clip-path="url(#e1e73fafac)"><path fill="#cbc9c9" d="M 62.417969 214.621094 C 62.421875 216.183594 62.703125 216.1875 63 216.1875 C 63 216.1875 63 216.1875 63.003906 216.1875 C 63.210938 216.1875 63.488281 216.136719 63.882812 216.027344 C 65.246094 215.640625 66.605469 215.257812 67.964844 214.871094 C 70.964844 214.023438 74.0625 213.148438 77.113281 212.300781 C 77.851562 212.09375 78.09375 211.898438 78.140625 211.460938 L 78.160156 211.324219 C 78.253906 210.484375 78.335938 209.761719 77.816406 209.136719 C 77.742188 209.046875 77.691406 209.039062 77.640625 209.039062 C 77.550781 209.039062 77.433594 209.074219 77.304688 209.113281 L 77.25 209.125 C 73.339844 210.238281 68.46875 211.617188 63.796875 212.921875 C 62.191406 213.367188 62.359375 214.257812 62.410156 214.550781 L 62.417969 214.585938 L 62.417969 214.621094 " fill-opacity="1" fill-rule="nonzero"/></g><g clip-path="url(#4822bb2a3f)"><path fill="#cbc9c9" d="M 68.027344 220.558594 C 69.234375 220.617188 70.828125 220.625 72.078125 220.625 C 72.914062 220.625 73.746094 220.621094 74.476562 220.617188 C 75.042969 220.613281 75.5625 220.609375 75.992188 220.609375 C 77.066406 220.609375 77.765625 220.378906 78.074219 219.925781 C 78.375 219.476562 78.347656 218.742188 77.988281 217.742188 L 68.027344 220.558594 " fill-opacity="1" fill-rule="nonzero"/></g><g clip-path="url(#295db37b63)"><path fill="#cbc9c9" d="M 63.695312 208.882812 L 63.382812 208.882812 C 62.8125 208.886719 62.617188 209.316406 62.550781 209.574219 C 62.371094 210.285156 62.253906 211.109375 62.683594 211.910156 L 72.941406 209.011719 C 70.382812 208.945312 66.320312 208.882812 63.695312 208.882812 " fill-opacity="1" fill-rule="nonzero"/></g><g clip-path="url(#54bb217234)"><path fill="#cbc9c9" d="M 66.199219 221.835938 C 66.164062 222.5 66.328125 223.050781 66.667969 223.433594 C 67.019531 223.824219 67.574219 224.046875 68.269531 224.078125 C 68.570312 224.09375 69.367188 224.101562 70.292969 224.101562 C 71.21875 224.101562 72.015625 224.09375 72.320312 224.078125 C 73.015625 224.046875 73.566406 223.824219 73.917969 223.433594 C 74.261719 223.050781 74.421875 222.5 74.386719 221.835938 L 66.199219 221.835938 " fill-opacity="1" fill-rule="nonzero"/></g><g clip-path="url(#53421f61f0)"><path fill="#cbc9c9" d="M 89.929688 186.988281 C 89.613281 187.964844 88.757812 188.695312 87.574219 189.007812 C 86.820312 187.285156 86.296875 186.609375 85.453125 186.238281 C 84.683594 185.902344 84.136719 186.03125 83.820312 186.617188 C 83.519531 187.175781 83.695312 187.695312 84.3125 188.082031 C 84.878906 188.433594 85.195312 188.828125 85.257812 189.261719 C 85.320312 189.695312 85.121094 190.175781 84.664062 190.691406 C 83.96875 191.46875 84.203125 192.027344 84.523438 192.355469 C 84.761719 192.601562 85.023438 192.722656 85.300781 192.714844 C 85.722656 192.703125 86.070312 192.398438 86.292969 192.144531 C 86.824219 191.523438 87.269531 191.195312 87.964844 191.335938 C 88.183594 193.378906 87.265625 194.933594 85.3125 195.839844 C 85.160156 195.785156 85.113281 195.664062 85.050781 195.476562 C 85.023438 195.382812 84.992188 195.292969 84.941406 195.207031 C 84.527344 194.550781 84.058594 194.367188 83.5 194.652344 C 82.828125 194.996094 82.867188 195.617188 82.980469 196.121094 C 83.367188 197.894531 83.15625 199.230469 82.367188 199.980469 C 81.589844 200.730469 80.265625 200.882812 78.542969 200.421875 C 78.03125 200.285156 77.40625 200.21875 77.082031 200.917969 C 76.796875 201.539062 77.015625 202.039062 77.746094 202.445312 C 77.925781 202.546875 78.125 202.601562 78.320312 202.652344 C 78.613281 202.734375 78.894531 202.8125 79.101562 203.042969 C 79.09375 203.191406 79.09375 203.335938 79.097656 203.476562 C 79.101562 203.925781 79.105469 204.351562 78.890625 204.738281 L 73.992188 204.738281 L 73.992188 197.449219 C 74.074219 197.5 74.148438 197.546875 74.21875 197.589844 C 74.390625 197.695312 74.523438 197.78125 74.652344 197.875 C 74.757812 197.953125 74.863281 198.042969 74.972656 198.132812 C 75.394531 198.484375 75.867188 198.875 76.371094 198.820312 C 76.648438 198.785156 76.894531 198.621094 77.125 198.3125 C 77.363281 197.992188 77.453125 197.707031 77.40625 197.441406 C 77.316406 196.996094 76.859375 196.71875 76.414062 196.449219 C 76.25 196.351562 76.09375 196.257812 75.964844 196.15625 C 73.90625 194.597656 73.5625 192.929688 74.816406 190.574219 C 75.148438 189.960938 75.058594 189.433594 74.582031 189.167969 C 73.671875 188.65625 73.773438 187.941406 73.882812 187.183594 C 73.933594 186.828125 73.984375 186.464844 73.925781 186.121094 C 73.816406 185.464844 73.90625 184.941406 74.195312 184.5625 C 74.511719 184.152344 75.054688 183.902344 75.820312 183.824219 C 76.113281 183.796875 76.351562 183.675781 76.507812 183.476562 C 76.671875 183.273438 76.734375 183.003906 76.699219 182.699219 C 76.628906 182.109375 76.222656 181.757812 75.613281 181.757812 C 75.222656 181.757812 74.851562 181.789062 74.414062 181.828125 C 74.25 181.84375 74.078125 181.859375 73.894531 181.875 C 73.945312 181.222656 73.921875 180.574219 73.898438 179.945312 C 73.847656 178.554688 73.796875 177.246094 74.519531 175.988281 C 74.675781 175.722656 74.757812 175.335938 74.523438 175.054688 C 73.628906 173.96875 73.765625 172.730469 73.898438 171.53125 C 73.945312 171.113281 73.992188 170.683594 73.992188 170.265625 C 74.003906 169.113281 74.753906 168.210938 76 167.847656 C 77.28125 167.472656 78.296875 167.738281 79.101562 168.660156 C 78.882812 168.800781 78.65625 168.929688 78.433594 169.058594 C 77.8125 169.414062 77.222656 169.753906 76.800781 170.347656 C 76.4375 170.863281 76.457031 171.359375 76.859375 171.78125 C 77.269531 172.214844 77.773438 172.246094 78.277344 171.867188 C 78.40625 171.773438 78.523438 171.667969 78.636719 171.566406 C 78.769531 171.445312 78.90625 171.324219 79.050781 171.222656 C 80.628906 170.125 82.945312 170.371094 84.214844 171.769531 C 85.53125 173.222656 85.558594 175.257812 84.289062 176.859375 C 83 175.828125 81.78125 175.445312 80.460938 175.664062 L 80.429688 175.671875 C 79.703125 175.792969 78.800781 175.941406 78.886719 176.976562 C 78.910156 177.316406 79.015625 177.554688 79.203125 177.710938 C 79.523438 177.976562 80.015625 177.921875 80.488281 177.871094 L 80.652344 177.855469 C 81.542969 177.765625 82.34375 178.035156 82.855469 178.597656 C 83.308594 179.101562 83.476562 179.769531 83.335938 180.480469 C 83.285156 180.730469 83.175781 180.980469 83.070312 181.21875 C 83.042969 181.28125 83.015625 181.34375 82.984375 181.40625 C 82.664062 182.152344 82.832031 182.722656 83.457031 183.007812 C 84.246094 183.367188 84.699219 182.769531 84.972656 182.289062 C 85.460938 181.429688 85.640625 180.753906 85.535156 180.160156 C 85.34375 179.089844 85.804688 178.453125 86.613281 177.789062 C 87.09375 178.113281 87.417969 178.574219 87.628906 179.234375 C 88.109375 180.730469 87.875 182.074219 86.933594 183.222656 C 86.472656 183.789062 86.472656 184.339844 86.9375 184.773438 C 87.453125 185.261719 88.027344 185.207031 88.585938 184.617188 C 88.714844 184.480469 88.84375 184.332031 88.988281 184.164062 C 89.046875 184.09375 89.109375 184.023438 89.183594 183.941406 C 89.96875 184.902344 90.242188 186.007812 89.929688 186.988281 Z M 68.039062 204.746094 L 65.210938 204.746094 C 64.195312 204.738281 62.429688 204.726562 61.730469 204.703125 C 61.71875 204.617188 61.707031 204.539062 61.695312 204.457031 C 61.667969 204.253906 61.640625 204.066406 61.625 203.878906 C 61.175781 199.605469 59.839844 196.101562 57.546875 193.175781 C 52.394531 186.617188 53.347656 177.355469 59.710938 172.09375 C 62.246094 170 64.96875 168.945312 68.039062 168.878906 Z M 90.019531 180.660156 C 90.082031 178.832031 89.417969 177.296875 88.046875 176.097656 C 87.519531 175.640625 87.417969 175.183594 87.417969 174.550781 C 87.410156 171.460938 85.488281 169.074219 82.511719 168.46875 C 81.816406 168.328125 81.441406 168.011719 81.066406 167.550781 C 79.550781 165.6875 77.332031 165.039062 75.132812 165.828125 C 72.984375 166.59375 71.796875 168.382812 71.785156 170.855469 C 71.773438 174.894531 71.777344 179 71.777344 182.96875 C 71.78125 184.617188 71.78125 186.265625 71.78125 187.914062 L 71.78125 188.011719 L 71.792969 188.011719 L 71.792969 192.914062 C 71.792969 196.859375 71.792969 200.800781 71.796875 204.746094 L 70.292969 204.746094 C 70.292969 200.367188 70.292969 195.992188 70.292969 191.617188 L 70.292969 183.382812 C 70.292969 178.511719 70.292969 173.640625 70.292969 168.773438 C 70.292969 167.699219 70.234375 167.132812 69.910156 166.828125 C 69.574219 166.511719 68.996094 166.511719 67.84375 166.582031 C 60.394531 167.039062 53.878906 172.738281 52.34375 180.136719 C 51.308594 185.125 52.316406 189.753906 55.339844 193.898438 C 58.054688 197.621094 59.40625 201.355469 59.460938 205.316406 C 59.460938 205.339844 59.464844 205.386719 59.464844 205.441406 C 59.496094 206.328125 60.214844 207.023438 61.105469 207.023438 L 79.535156 207.023438 C 79.980469 207.023438 80.394531 206.847656 80.707031 206.53125 C 81.015625 206.21875 81.183594 205.804688 81.175781 205.363281 C 81.132812 203.964844 81.242188 202.675781 83.015625 202.09375 C 83.957031 201.78125 84.761719 200.824219 85.054688 199.648438 C 85.332031 198.570312 85.929688 198.054688 86.808594 197.570312 C 89.070312 196.324219 90.269531 194.183594 90.277344 191.382812 C 90.277344 190.609375 90.375 190.082031 90.871094 189.511719 C 92.851562 187.238281 92.742188 184.328125 90.589844 182.101562 C 90.15625 181.652344 90 181.25 90.019531 180.660156 " fill-opacity="1" fill-rule="nonzero"/></g><g clip-path="url(#f7af38f7a6)"><path fill="#023047" d="M 39.417969 183.125 C 38.792969 183.027344 38.148438 183.292969 37.8125 183.832031 C 37.652344 184.089844 37.5625 184.402344 37.574219 184.734375 C 37.585938 185.0625 37.699219 185.367188 37.882812 185.613281 C 38.257812 186.125 38.917969 186.339844 39.535156 186.195312 L 47.03125 184.429688 L 47.027344 184.3125 L 39.417969 183.125 " fill-opacity="1" fill-rule="nonzero"/></g><path fill="#023047" d="M 43.324219 167.335938 C 43.050781 167.480469 42.820312 167.703125 42.664062 167.996094 C 42.507812 168.289062 42.457031 168.605469 42.488281 168.914062 C 42.558594 169.546875 43.023438 170.0625 43.632812 170.242188 L 51.007812 172.464844 L 51.0625 172.359375 L 45.066406 167.527344 C 44.574219 167.128906 43.882812 167.035156 43.324219 167.335938 " fill-opacity="1" fill-rule="nonzero"/><path fill="#023047" d="M 60.433594 164.085938 L 60.53125 164.023438 L 57.753906 156.839844 C 57.527344 156.25 56.976562 155.824219 56.34375 155.804688 C 56.035156 155.792969 55.722656 155.871094 55.441406 156.046875 C 55.160156 156.222656 54.957031 156.472656 54.832031 156.753906 C 54.574219 157.335938 54.71875 158.015625 55.152344 158.476562 L 60.433594 164.085938 " fill-opacity="1" fill-rule="nonzero"/><g clip-path="url(#ee2d58aaf1)"><path fill="#023047" d="M 77.015625 213.441406 C 76.945312 213.441406 76.859375 213.457031 76.742188 213.488281 L 74.558594 214.113281 C 70.523438 215.257812 66.351562 216.445312 62.242188 217.582031 C 61.703125 217.730469 61.675781 217.984375 61.65625 218.542969 C 61.652344 218.644531 61.648438 218.75 61.640625 218.855469 C 61.644531 220.34375 62.054688 220.464844 62.511719 220.464844 C 62.746094 220.464844 63.035156 220.417969 63.394531 220.316406 C 67.617188 219.128906 71.84375 217.9375 76.066406 216.746094 C 76.636719 216.582031 77.109375 216.15625 77.359375 215.574219 C 77.625 214.945312 77.597656 214.246094 77.285156 213.65625 C 77.171875 213.441406 77.085938 213.441406 77.015625 213.441406 " fill-opacity="1" fill-rule="nonzero"/></g><g clip-path="url(#80756b7d87)"><path fill="#023047" d="M 61.644531 214.621094 C 61.652344 216.183594 61.929688 216.1875 62.230469 216.1875 C 62.4375 216.1875 62.71875 216.136719 63.113281 216.027344 C 64.472656 215.640625 65.832031 215.257812 67.195312 214.871094 C 70.191406 214.023438 73.289062 213.148438 76.34375 212.300781 C 77.082031 212.09375 77.320312 211.898438 77.371094 211.460938 L 77.386719 211.324219 C 77.480469 210.484375 77.5625 209.761719 77.042969 209.136719 C 76.96875 209.046875 76.921875 209.039062 76.871094 209.039062 C 76.78125 209.039062 76.660156 209.074219 76.53125 209.113281 L 76.476562 209.125 C 72.566406 210.238281 67.699219 211.617188 63.023438 212.921875 C 61.421875 213.367188 61.585938 214.257812 61.640625 214.550781 L 61.644531 214.585938 L 61.644531 214.621094 " fill-opacity="1" fill-rule="nonzero"/></g><g clip-path="url(#9dcfd12c35)"><path fill="#023047" d="M 67.257812 220.558594 C 68.464844 220.617188 70.058594 220.625 71.308594 220.625 C 72.144531 220.625 72.972656 220.621094 73.703125 220.617188 C 74.273438 220.613281 74.789062 220.609375 75.222656 220.609375 C 76.292969 220.609375 76.992188 220.378906 77.300781 219.925781 C 77.601562 219.476562 77.578125 218.742188 77.21875 217.742188 L 67.257812 220.558594 " fill-opacity="1" fill-rule="nonzero"/></g><g clip-path="url(#14930fd370)"><path fill="#023047" d="M 62.921875 208.882812 L 62.609375 208.882812 C 62.039062 208.886719 61.84375 209.316406 61.78125 209.574219 C 61.597656 210.285156 61.480469 211.109375 61.914062 211.910156 L 72.171875 209.011719 C 69.609375 208.945312 65.546875 208.882812 62.921875 208.882812 " fill-opacity="1" fill-rule="nonzero"/></g><g clip-path="url(#f4dbba2d9a)"><path fill="#023047" d="M 65.425781 221.835938 C 65.390625 222.5 65.554688 223.050781 65.898438 223.433594 C 66.25 223.824219 66.800781 224.046875 67.496094 224.078125 C 67.800781 224.09375 68.597656 224.101562 69.523438 224.101562 C 70.449219 224.101562 71.246094 224.09375 71.546875 224.078125 C 72.242188 224.046875 72.792969 223.824219 73.148438 223.433594 C 73.488281 223.050781 73.652344 222.5 73.617188 221.835938 L 65.425781 221.835938 " fill-opacity="1" fill-rule="nonzero"/></g><g clip-path="url(#0816d0d4ef)"><path fill="#023047" d="M 89.15625 186.988281 C 88.84375 187.964844 87.988281 188.695312 86.804688 189.007812 C 86.046875 187.285156 85.527344 186.609375 84.679688 186.238281 C 83.914062 185.902344 83.363281 186.03125 83.050781 186.617188 C 82.746094 187.175781 82.921875 187.695312 83.542969 188.082031 C 84.105469 188.433594 84.421875 188.828125 84.484375 189.261719 C 84.550781 189.695312 84.347656 190.175781 83.894531 190.691406 C 83.199219 191.46875 83.433594 192.027344 83.75 192.355469 C 83.992188 192.601562 84.253906 192.722656 84.527344 192.714844 C 84.953125 192.703125 85.300781 192.398438 85.519531 192.144531 C 86.050781 191.523438 86.5 191.195312 87.191406 191.335938 C 87.410156 193.378906 86.496094 194.933594 84.539062 195.839844 C 84.390625 195.785156 84.34375 195.664062 84.28125 195.476562 C 84.25 195.382812 84.222656 195.292969 84.167969 195.207031 C 83.757812 194.550781 83.289062 194.367188 82.730469 194.652344 C 82.054688 194.996094 82.09375 195.617188 82.207031 196.121094 C 82.597656 197.894531 82.386719 199.230469 81.597656 199.980469 C 80.820312 200.730469 79.492188 200.882812 77.769531 200.421875 C 77.261719 200.285156 76.636719 200.21875 76.3125 200.917969 C 76.023438 201.539062 76.242188 202.039062 76.972656 202.445312 C 77.15625 202.546875 77.355469 202.601562 77.546875 202.652344 C 77.84375 202.734375 78.125 202.8125 78.328125 203.042969 C 78.324219 203.191406 78.324219 203.335938 78.324219 203.476562 C 78.328125 203.925781 78.335938 204.351562 78.117188 204.738281 L 73.222656 204.738281 L 73.222656 197.449219 C 73.304688 197.5 73.378906 197.546875 73.449219 197.589844 C 73.617188 197.695312 73.753906 197.78125 73.882812 197.875 C 73.984375 197.953125 74.089844 198.042969 74.199219 198.132812 C 74.621094 198.484375 75.097656 198.875 75.597656 198.820312 C 75.875 198.785156 76.121094 198.621094 76.351562 198.3125 C 76.59375 197.992188 76.683594 197.707031 76.632812 197.441406 C 76.546875 196.996094 76.085938 196.71875 75.644531 196.449219 C 75.480469 196.351562 75.324219 196.257812 75.191406 196.15625 C 73.132812 194.597656 72.792969 192.929688 74.046875 190.574219 C 74.375 189.960938 74.289062 189.433594 73.8125 189.167969 C 72.898438 188.65625 73.003906 187.941406 73.109375 187.183594 C 73.160156 186.828125 73.214844 186.464844 73.15625 186.121094 C 73.042969 185.464844 73.136719 184.941406 73.425781 184.5625 C 73.738281 184.152344 74.285156 183.902344 75.050781 183.824219 C 75.339844 183.796875 75.578125 183.675781 75.738281 183.476562 C 75.898438 183.273438 75.964844 183.003906 75.925781 182.699219 C 75.855469 182.109375 75.449219 181.757812 74.84375 181.757812 C 74.449219 181.757812 74.082031 181.789062 73.644531 181.828125 C 73.476562 181.84375 73.304688 181.859375 73.125 181.875 C 73.175781 181.222656 73.148438 180.574219 73.128906 179.945312 C 73.074219 178.554688 73.023438 177.246094 73.75 175.988281 C 73.902344 175.722656 73.984375 175.335938 73.75 175.054688 C 72.859375 173.96875 72.996094 172.730469 73.128906 171.53125 C 73.171875 171.113281 73.21875 170.683594 73.222656 170.265625 C 73.234375 169.113281 73.984375 168.210938 75.230469 167.847656 C 76.507812 167.472656 77.523438 167.738281 78.328125 168.660156 C 78.109375 168.800781 77.882812 168.929688 77.664062 169.058594 C 77.039062 169.414062 76.449219 169.753906 76.03125 170.347656 C 75.667969 170.863281 75.6875 171.359375 76.085938 171.78125 C 76.496094 172.214844 77.003906 172.246094 77.507812 171.867188 C 77.632812 171.773438 77.75 171.667969 77.867188 171.566406 C 77.996094 171.445312 78.132812 171.324219 78.28125 171.222656 C 79.859375 170.125 82.175781 170.371094 83.445312 171.769531 C 84.761719 173.222656 84.789062 175.257812 83.515625 176.859375 C 82.226562 175.828125 81.011719 175.445312 79.6875 175.664062 L 79.660156 175.671875 C 78.933594 175.792969 78.03125 175.941406 78.113281 176.976562 C 78.140625 177.316406 78.246094 177.554688 78.429688 177.710938 C 78.75 177.976562 79.242188 177.921875 79.714844 177.871094 L 79.882812 177.855469 C 80.769531 177.765625 81.574219 178.035156 82.082031 178.597656 C 82.535156 179.101562 82.707031 179.769531 82.5625 180.480469 C 82.511719 180.730469 82.40625 180.980469 82.296875 181.21875 C 82.269531 181.28125 82.242188 181.34375 82.214844 181.40625 C 81.894531 182.152344 82.0625 182.722656 82.6875 183.007812 C 83.472656 183.367188 83.929688 182.769531 84.203125 182.289062 C 84.691406 181.429688 84.867188 180.753906 84.761719 180.160156 C 84.570312 179.089844 85.03125 178.453125 85.839844 177.789062 C 86.324219 178.113281 86.648438 178.574219 86.859375 179.234375 C 87.339844 180.730469 87.105469 182.074219 86.164062 183.222656 C 85.703125 183.789062 85.703125 184.339844 86.164062 184.773438 C 86.683594 185.261719 87.253906 185.207031 87.816406 184.617188 C 87.945312 184.480469 88.074219 184.332031 88.21875 184.164062 C 88.277344 184.09375 88.339844 184.023438 88.410156 183.941406 C 89.199219 184.902344 89.472656 186.007812 89.15625 186.988281 Z M 67.265625 204.746094 L 64.4375 204.746094 C 63.421875 204.738281 61.660156 204.726562 60.960938 204.703125 C 60.949219 204.617188 60.9375 204.539062 60.925781 204.457031 C 60.898438 204.253906 60.871094 204.066406 60.851562 203.878906 C 60.402344 199.605469 59.070312 196.101562 56.773438 193.175781 C 51.625 186.617188 52.574219 177.355469 58.941406 172.09375 C 61.472656 170 64.199219 168.945312 67.265625 168.878906 Z M 89.246094 180.660156 C 89.3125 178.832031 88.648438 177.296875 87.273438 176.097656 C 86.75 175.640625 86.644531 175.183594 86.644531 174.550781 C 86.640625 171.460938 84.714844 169.074219 81.742188 168.46875 C 81.042969 168.328125 80.671875 168.011719 80.292969 167.550781 C 78.777344 165.6875 76.558594 165.039062 74.363281 165.828125 C 72.214844 166.59375 71.023438 168.382812 71.015625 170.855469 C 71 174.894531 71.003906 179 71.007812 182.96875 C 71.007812 184.617188 71.011719 186.265625 71.011719 187.914062 L 71.011719 188.011719 L 71.023438 188.011719 L 71.023438 192.914062 C 71.023438 196.859375 71.023438 200.800781 71.023438 204.746094 L 69.519531 204.746094 C 69.523438 200.367188 69.523438 195.992188 69.523438 191.617188 L 69.523438 183.382812 C 69.523438 178.511719 69.523438 173.640625 69.523438 168.773438 C 69.523438 167.699219 69.464844 167.132812 69.140625 166.828125 C 68.804688 166.511719 68.226562 166.511719 67.074219 166.582031 C 59.625 167.039062 53.105469 172.738281 51.574219 180.136719 C 50.539062 185.125 51.546875 189.753906 54.570312 193.898438 C 57.285156 197.621094 58.632812 201.355469 58.691406 205.316406 C 58.691406 205.339844 58.691406 205.386719 58.695312 205.441406 C 58.722656 206.328125 59.445312 207.023438 60.332031 207.023438 L 78.765625 207.023438 C 79.210938 207.023438 79.625 206.847656 79.9375 206.53125 C 80.246094 206.21875 80.410156 205.804688 80.40625 205.363281 C 80.363281 203.964844 80.46875 202.675781 82.246094 202.09375 C 83.1875 201.78125 83.988281 200.824219 84.285156 199.648438 C 84.558594 198.570312 85.15625 198.054688 86.035156 197.570312 C 88.300781 196.324219 89.5 194.183594 89.503906 191.382812 C 89.507812 190.609375 89.601562 190.082031 90.101562 189.511719 C 92.082031 187.238281 91.972656 184.328125 89.820312 182.101562 C 89.386719 181.652344 89.226562 181.25 89.246094 180.660156 " fill-opacity="1" fill-rule="nonzero"/></g><g fill="#023047" fill-opacity="1"><g transform="translate(126.495831, 199.596132)"><g><path d="M 11.703125 0.265625 C 9.804688 0.265625 8.101562 -0.0390625 6.59375 -0.65625 C 5.082031 -1.28125 3.875 -2.195312 2.96875 -3.40625 C 2.070312 -4.613281 1.601562 -6.070312 1.5625 -7.78125 L 8.296875 -7.78125 C 8.398438 -6.8125 8.734375 -6.070312 9.296875 -5.5625 C 9.867188 -5.0625 10.609375 -4.8125 11.515625 -4.8125 C 12.453125 -4.8125 13.191406 -5.023438 13.734375 -5.453125 C 14.285156 -5.890625 14.5625 -6.492188 14.5625 -7.265625 C 14.5625 -7.898438 14.34375 -8.425781 13.90625 -8.84375 C 13.476562 -9.269531 12.945312 -9.617188 12.3125 -9.890625 C 11.6875 -10.160156 10.789062 -10.46875 9.625 -10.8125 C 7.945312 -11.332031 6.578125 -11.851562 5.515625 -12.375 C 4.453125 -12.894531 3.535156 -13.660156 2.765625 -14.671875 C 2.003906 -15.679688 1.625 -17.003906 1.625 -18.640625 C 1.625 -21.054688 2.5 -22.945312 4.25 -24.3125 C 6.007812 -25.6875 8.296875 -26.375 11.109375 -26.375 C 13.972656 -26.375 16.28125 -25.6875 18.03125 -24.3125 C 19.789062 -22.945312 20.734375 -21.039062 20.859375 -18.59375 L 14 -18.59375 C 13.945312 -19.4375 13.632812 -20.097656 13.0625 -20.578125 C 12.5 -21.054688 11.773438 -21.296875 10.890625 -21.296875 C 10.128906 -21.296875 9.507812 -21.09375 9.03125 -20.6875 C 8.5625 -20.28125 8.328125 -19.695312 8.328125 -18.9375 C 8.328125 -18.09375 8.722656 -17.4375 9.515625 -16.96875 C 10.304688 -16.5 11.539062 -15.992188 13.21875 -15.453125 C 14.90625 -14.878906 16.269531 -14.332031 17.3125 -13.8125 C 18.363281 -13.300781 19.269531 -12.550781 20.03125 -11.5625 C 20.800781 -10.570312 21.1875 -9.300781 21.1875 -7.75 C 21.1875 -6.257812 20.8125 -4.910156 20.0625 -3.703125 C 19.3125 -2.492188 18.21875 -1.53125 16.78125 -0.8125 C 15.351562 -0.09375 13.660156 0.265625 11.703125 0.265625 Z M 11.703125 0.265625 "/></g></g></g><g fill="#023047" fill-opacity="1"><g transform="translate(147.49945, 199.596132)"><g><path d="M 21 -26 L 21 -20.9375 L 14.109375 -20.9375 L 14.109375 0 L 7.78125 0 L 7.78125 -20.9375 L 0.890625 -20.9375 L 0.890625 -26 Z M 21 -26 "/></g></g></g><g fill="#023047" fill-opacity="1"><g transform="translate(167.613996, 199.596132)"><g><path d="M 15.5625 0 L 10.15625 -9.8125 L 8.625 -9.8125 L 8.625 0 L 2.296875 0 L 2.296875 -26 L 12.921875 -26 C 14.972656 -26 16.722656 -25.640625 18.171875 -24.921875 C 19.617188 -24.210938 20.695312 -23.234375 21.40625 -21.984375 C 22.125 -20.734375 22.484375 -19.34375 22.484375 -17.8125 C 22.484375 -16.082031 21.992188 -14.539062 21.015625 -13.1875 C 20.046875 -11.832031 18.609375 -10.867188 16.703125 -10.296875 L 22.703125 0 Z M 8.625 -14.296875 L 12.5625 -14.296875 C 13.71875 -14.296875 14.585938 -14.578125 15.171875 -15.140625 C 15.753906 -15.710938 16.046875 -16.519531 16.046875 -17.5625 C 16.046875 -18.550781 15.753906 -19.328125 15.171875 -19.890625 C 14.585938 -20.460938 13.71875 -20.75 12.5625 -20.75 L 8.625 -20.75 Z M 8.625 -14.296875 "/></g></g></g><g fill="#023047" fill-opacity="1"><g transform="translate(189.988262, 199.596132)"><g><path d="M 18.484375 -4.59375 L 8.78125 -4.59375 L 7.21875 0 L 0.59375 0 L 10 -26 L 17.34375 -26 L 26.75 0 L 20.046875 0 Z M 16.859375 -9.484375 L 13.640625 -19 L 10.453125 -9.484375 Z M 16.859375 -9.484375 "/></g></g></g><g fill="#023047" fill-opacity="1"><g transform="translate(215.511312, 199.596132)"><g><path d="M 21 -26 L 21 -20.9375 L 14.109375 -20.9375 L 14.109375 0 L 7.78125 0 L 7.78125 -20.9375 L 0.890625 -20.9375 L 0.890625 -26 Z M 21 -26 "/></g></g></g><g fill="#023047" fill-opacity="1"><g transform="translate(235.625859, 199.596132)"><g><path d="M 8.625 -20.9375 L 8.625 -15.671875 L 17.109375 -15.671875 L 17.109375 -10.78125 L 8.625 -10.78125 L 8.625 -5.078125 L 18.234375 -5.078125 L 18.234375 0 L 2.296875 0 L 2.296875 -26 L 18.234375 -26 L 18.234375 -20.9375 Z M 8.625 -20.9375 "/></g></g></g><g fill="#023047" fill-opacity="1"><g transform="translate(253.888178, 199.596132)"><g><path d="M 19.5625 -17.78125 C 19.09375 -18.644531 18.414062 -19.304688 17.53125 -19.765625 C 16.65625 -20.222656 15.628906 -20.453125 14.453125 -20.453125 C 12.398438 -20.453125 10.753906 -19.773438 9.515625 -18.421875 C 8.285156 -17.078125 7.671875 -15.285156 7.671875 -13.046875 C 7.671875 -10.648438 8.316406 -8.773438 9.609375 -7.421875 C 10.910156 -6.078125 12.695312 -5.40625 14.96875 -5.40625 C 16.519531 -5.40625 17.832031 -5.800781 18.90625 -6.59375 C 19.988281 -7.382812 20.773438 -8.519531 21.265625 -10 L 13.21875 -10 L 13.21875 -14.671875 L 27 -14.671875 L 27 -8.78125 C 26.53125 -7.195312 25.734375 -5.722656 24.609375 -4.359375 C 23.492188 -3.003906 22.070312 -1.90625 20.34375 -1.0625 C 18.613281 -0.226562 16.660156 0.1875 14.484375 0.1875 C 11.910156 0.1875 9.617188 -0.375 7.609375 -1.5 C 5.597656 -2.625 4.03125 -4.1875 2.90625 -6.1875 C 1.78125 -8.1875 1.21875 -10.472656 1.21875 -13.046875 C 1.21875 -15.609375 1.78125 -17.894531 2.90625 -19.90625 C 4.03125 -21.925781 5.59375 -23.492188 7.59375 -24.609375 C 9.59375 -25.734375 11.878906 -26.296875 14.453125 -26.296875 C 17.554688 -26.296875 20.175781 -25.539062 22.3125 -24.03125 C 24.457031 -22.53125 25.875 -20.445312 26.5625 -17.78125 Z M 19.5625 -17.78125 "/></g></g></g><g fill="#023047" fill-opacity="1"><g transform="translate(280.337334, 199.596132)"><g><path d="M 8.625 -26 L 8.625 0 L 2.296875 0 L 2.296875 -26 Z M 8.625 -26 "/></g></g></g><g fill="#023047" fill-opacity="1"><g transform="translate(289.486716, 199.596132)"><g/></g></g><g fill="#023047" fill-opacity="1"><g transform="translate(295.561404, 199.596132)"><g><path d="M 8.625 -26 L 8.625 0 L 2.296875 0 L 2.296875 -26 Z M 8.625 -26 "/></g></g></g><g fill="#023047" fill-opacity="1"><g transform="translate(304.710787, 199.596132)"><g><path d="M 20.828125 4.453125 L 17.484375 -0.03125 C 16.492188 0.164062 15.53125 0.265625 14.59375 0.265625 C 12.144531 0.265625 9.898438 -0.300781 7.859375 -1.4375 C 5.828125 -2.582031 4.210938 -4.171875 3.015625 -6.203125 C 1.816406 -8.242188 1.21875 -10.535156 1.21875 -13.078125 C 1.21875 -15.617188 1.816406 -17.898438 3.015625 -19.921875 C 4.210938 -21.953125 5.828125 -23.535156 7.859375 -24.671875 C 9.898438 -25.804688 12.144531 -26.375 14.59375 -26.375 C 17.039062 -26.375 19.28125 -25.804688 21.3125 -24.671875 C 23.351562 -23.535156 24.957031 -21.953125 26.125 -19.921875 C 27.300781 -17.898438 27.890625 -15.617188 27.890625 -13.078125 C 27.890625 -10.859375 27.4375 -8.828125 26.53125 -6.984375 C 25.632812 -5.140625 24.382812 -3.613281 22.78125 -2.40625 L 28.484375 4.453125 Z M 7.703125 -13.078125 C 7.703125 -10.773438 8.328125 -8.9375 9.578125 -7.5625 C 10.828125 -6.195312 12.5 -5.515625 14.59375 -5.515625 C 16.664062 -5.515625 18.328125 -6.207031 19.578125 -7.59375 C 20.828125 -8.976562 21.453125 -10.804688 21.453125 -13.078125 C 21.453125 -15.367188 20.828125 -17.203125 19.578125 -18.578125 C 18.328125 -19.953125 16.664062 -20.640625 14.59375 -20.640625 C 12.5 -20.640625 10.828125 -19.957031 9.578125 -18.59375 C 8.328125 -17.238281 7.703125 -15.398438 7.703125 -13.078125 Z M 7.703125 -13.078125 "/></g></g></g><g fill="#023047" fill-opacity="1"><g transform="translate(130.51082, 224.0404)"><g><path d="M 1.632812 0 L 3.148438 0 L 3.148438 -12.039062 L 1.632812 -12.039062 Z M 1.632812 0 "/></g></g></g><g fill="#023047" fill-opacity="1"><g transform="translate(134.483657, 224.0404)"><g><path d="M 6.105469 -9.476562 C 4.679688 -9.476562 3.492188 -8.859375 2.785156 -7.828125 L 2.511719 -9.289062 L 1.460938 -9.289062 L 1.460938 0 L 2.925781 0 L 2.925781 -5.058594 C 2.925781 -6.792969 4.144531 -8.152344 5.746094 -8.152344 C 7.34375 -8.152344 8.238281 -7.085938 8.238281 -5.210938 L 8.238281 0 L 9.703125 0 L 9.703125 -5.554688 C 9.703125 -7.828125 8.324219 -9.476562 6.105469 -9.476562 Z M 6.105469 -9.476562 "/></g></g></g><g fill="#023047" fill-opacity="1"><g transform="translate(144.699831, 224.0404)"><g><path d="M 5.316406 -1.339844 C 4.042969 -1.339844 3.355469 -2.03125 3.355469 -3.285156 L 3.355469 -7.964844 L 6.277344 -7.964844 L 6.277344 -9.289062 L 3.355469 -9.289062 L 3.355469 -11.25 L 3.128906 -11.25 L 0.257812 -8.222656 L 0.257812 -7.964844 L 1.890625 -7.964844 L 1.890625 -3.234375 C 1.890625 -1.222656 3.128906 0 5.125 0 L 6.328125 0 L 6.328125 -1.339844 Z M 5.316406 -1.339844 "/></g></g></g><g fill="#023047" fill-opacity="1"><g transform="translate(150.684975, 224.0404)"><g><path d="M 10.148438 -4.59375 C 10.148438 -7.308594 8.289062 -9.476562 5.46875 -9.476562 C 2.769531 -9.476562 0.738281 -7.394531 0.738281 -4.644531 C 0.738281 -1.875 2.769531 0.207031 5.46875 0.207031 C 7.480469 0.207031 9.117188 -0.910156 9.90625 -2.820312 L 8.359375 -2.820312 C 7.792969 -1.824219 6.761719 -1.222656 5.46875 -1.222656 C 3.714844 -1.222656 2.425781 -2.355469 2.203125 -4.078125 L 10.113281 -4.078125 C 10.132812 -4.25 10.148438 -4.421875 10.148438 -4.59375 Z M 5.46875 -8.101562 C 7.121094 -8.101562 8.375 -7.070312 8.6875 -5.417969 L 2.234375 -5.417969 C 2.527344 -7.035156 3.785156 -8.101562 5.46875 -8.101562 Z M 5.46875 -8.101562 "/></g></g></g><g fill="#023047" fill-opacity="1"><g transform="translate(160.729153, 224.0404)"><g><path d="M 5.710938 -9.324219 C 4.367188 -9.324219 3.40625 -8.824219 2.734375 -7.859375 L 2.511719 -9.289062 L 1.460938 -9.289062 L 1.460938 0 L 2.925781 0 L 2.925781 -5.039062 C 2.925781 -6.847656 3.886719 -7.945312 5.589844 -7.945312 L 6.535156 -7.945312 L 6.535156 -9.324219 Z M 5.710938 -9.324219 "/></g></g></g><g fill="#023047" fill-opacity="1"><g transform="translate(166.542314, 224.0404)"><g><path d="M 9.390625 -9.289062 L 9.203125 -7.859375 C 8.34375 -8.875 7.050781 -9.476562 5.539062 -9.476562 C 2.785156 -9.476562 0.722656 -7.414062 0.722656 -4.628906 C 0.722656 -1.875 2.785156 0.207031 5.539062 0.207031 C 7.050781 0.207031 8.324219 -0.394531 9.183594 -1.394531 L 9.339844 0 L 10.542969 0 L 10.542969 -9.289062 Z M 5.640625 -1.203125 C 3.679688 -1.203125 2.21875 -2.683594 2.21875 -4.644531 C 2.21875 -6.585938 3.679688 -8.066406 5.640625 -8.066406 C 7.621094 -8.066406 9.046875 -6.605469 9.046875 -4.644531 C 9.046875 -2.667969 7.621094 -1.203125 5.640625 -1.203125 Z M 5.640625 -1.203125 "/></g></g></g><g fill="#023047" fill-opacity="1"><g transform="translate(177.73884, 224.0404)"><g><path d="M 5.554688 0.207031 C 7.757812 0.207031 9.527344 -1.117188 10.097656 -3.164062 L 8.617188 -3.164062 C 8.050781 -1.925781 6.914062 -1.203125 5.554688 -1.203125 C 3.664062 -1.203125 2.21875 -2.699219 2.21875 -4.644531 C 2.21875 -6.570312 3.648438 -8.066406 5.554688 -8.066406 C 6.933594 -8.066406 8.085938 -7.34375 8.617188 -6.140625 L 10.078125 -6.140625 C 9.511719 -8.171875 7.773438 -9.476562 5.554688 -9.476562 C 2.804688 -9.476562 0.722656 -7.414062 0.722656 -4.644531 C 0.722656 -1.875 2.804688 0.207031 5.554688 0.207031 Z M 5.554688 0.207031 "/></g></g></g><g fill="#023047" fill-opacity="1"><g transform="translate(187.576626, 224.0404)"><g><path d="M 5.316406 -1.339844 C 4.042969 -1.339844 3.355469 -2.03125 3.355469 -3.285156 L 3.355469 -7.964844 L 6.277344 -7.964844 L 6.277344 -9.289062 L 3.355469 -9.289062 L 3.355469 -11.25 L 3.128906 -11.25 L 0.257812 -8.222656 L 0.257812 -7.964844 L 1.890625 -7.964844 L 1.890625 -3.234375 C 1.890625 -1.222656 3.128906 0 5.125 0 L 6.328125 0 L 6.328125 -1.339844 Z M 5.316406 -1.339844 "/></g></g></g><g fill="#023047" fill-opacity="1"><g transform="translate(193.561771, 224.0404)"><g><path d="M 1.410156 -10.886719 L 2.992188 -10.886719 L 2.992188 -12.554688 L 1.410156 -12.554688 Z M 1.460938 0 L 2.925781 0 L 2.925781 -9.289062 L 1.460938 -9.289062 Z M 1.460938 0 "/></g></g></g><g fill="#023047" fill-opacity="1"><g transform="translate(197.13902, 224.0404)"><g><path d="M 8.015625 -9.289062 L 4.9375 -1.890625 L 1.773438 -9.289062 L 0.257812 -9.289062 L 4.265625 0 L 5.609375 0 L 9.511719 -9.289062 Z M 8.015625 -9.289062 "/></g></g></g><g fill="#023047" fill-opacity="1"><g transform="translate(206.151241, 224.0404)"><g><path d="M 10.148438 -4.59375 C 10.148438 -7.308594 8.289062 -9.476562 5.46875 -9.476562 C 2.769531 -9.476562 0.738281 -7.394531 0.738281 -4.644531 C 0.738281 -1.875 2.769531 0.207031 5.46875 0.207031 C 7.480469 0.207031 9.117188 -0.910156 9.90625 -2.820312 L 8.359375 -2.820312 C 7.792969 -1.824219 6.761719 -1.222656 5.46875 -1.222656 C 3.714844 -1.222656 2.425781 -2.355469 2.203125 -4.078125 L 10.113281 -4.078125 C 10.132812 -4.25 10.148438 -4.421875 10.148438 -4.59375 Z M 5.46875 -8.101562 C 7.121094 -8.101562 8.375 -7.070312 8.6875 -5.417969 L 2.234375 -5.417969 C 2.527344 -7.035156 3.785156 -8.101562 5.46875 -8.101562 Z M 5.46875 -8.101562 "/></g></g></g><g fill="#023047" fill-opacity="1"><g transform="translate(216.195419, 224.0404)"><g/></g></g><g fill="#023047" fill-opacity="1"><g transform="translate(219.875869, 224.0404)"><g><path d="M 15.652344 -12.039062 L 12.730469 -2.460938 L 9.097656 -11.800781 L 8.496094 -11.800781 L 4.972656 -2.460938 L 1.976562 -12.039062 L 0.378906 -12.039062 L 4.25 0 L 5.574219 0 L 8.808594 -8.546875 L 12.125 0 L 13.449219 0 L 17.253906 -12.039062 Z M 15.652344 -12.039062 "/></g></g></g><g fill="#023047" fill-opacity="1"><g transform="translate(236.713749, 224.0404)"><g><path d="M 10.148438 -4.59375 C 10.148438 -7.308594 8.289062 -9.476562 5.46875 -9.476562 C 2.769531 -9.476562 0.738281 -7.394531 0.738281 -4.644531 C 0.738281 -1.875 2.769531 0.207031 5.46875 0.207031 C 7.480469 0.207031 9.117188 -0.910156 9.90625 -2.820312 L 8.359375 -2.820312 C 7.792969 -1.824219 6.761719 -1.222656 5.46875 -1.222656 C 3.714844 -1.222656 2.425781 -2.355469 2.203125 -4.078125 L 10.113281 -4.078125 C 10.132812 -4.25 10.148438 -4.421875 10.148438 -4.59375 Z M 5.46875 -8.101562 C 7.121094 -8.101562 8.375 -7.070312 8.6875 -5.417969 L 2.234375 -5.417969 C 2.527344 -7.035156 3.785156 -8.101562 5.46875 -8.101562 Z M 5.46875 -8.101562 "/></g></g></g><g fill="#023047" fill-opacity="1"><g transform="translate(246.757927, 224.0404)"><g><path d="M 6.363281 -9.476562 C 4.988281 -9.476562 3.785156 -8.960938 2.925781 -8.101562 L 2.925781 -12.589844 L 1.460938 -12.589844 L 1.460938 0 L 2.597656 0 L 2.804688 -1.308594 C 3.664062 -0.359375 4.917969 0.207031 6.363281 0.207031 C 9.167969 0.207031 11.164062 -1.875 11.164062 -4.644531 C 11.164062 -7.414062 9.167969 -9.476562 6.363281 -9.476562 Z M 6.261719 -1.203125 C 4.28125 -1.203125 2.839844 -2.699219 2.839844 -4.644531 C 2.839844 -6.585938 4.28125 -8.066406 6.261719 -8.066406 C 8.222656 -8.066406 9.667969 -6.605469 9.667969 -4.644531 C 9.667969 -2.667969 8.222656 -1.203125 6.261719 -1.203125 Z M 6.261719 -1.203125 "/></g></g></g><g fill="#023047" fill-opacity="1"><g transform="translate(257.834063, 224.0404)"><g/></g></g><g fill="#023047" fill-opacity="1"><g transform="translate(261.514513, 224.0404)"><g><path d="M 5.230469 0.15625 C 7.621094 0.15625 9.476562 -1.136719 9.476562 -3.40625 C 9.476562 -5.917969 7.34375 -6.414062 5.453125 -6.878906 C 3.90625 -7.242188 2.511719 -7.585938 2.511719 -8.894531 C 2.511719 -10.046875 3.613281 -10.734375 5.074219 -10.734375 C 6.535156 -10.734375 7.636719 -9.960938 7.636719 -8.617188 L 9.132812 -8.617188 C 9.132812 -10.800781 7.601562 -12.179688 5.109375 -12.179688 C 2.613281 -12.179688 1.015625 -10.921875 1.015625 -8.839844 C 1.015625 -6.433594 3.0625 -5.933594 4.917969 -5.503906 C 6.484375 -5.125 7.914062 -4.800781 7.914062 -3.386719 C 7.914062 -2.117188 6.726562 -1.324219 5.210938 -1.324219 C 3.542969 -1.324219 2.320312 -2.203125 2.320312 -3.699219 L 0.773438 -3.699219 C 0.773438 -1.324219 2.582031 0.15625 5.230469 0.15625 Z M 5.230469 0.15625 "/></g></g></g><g fill="#023047" fill-opacity="1"><g transform="translate(270.956714, 224.0404)"><g><path d="M 5.660156 0.207031 C 8.460938 0.207031 10.578125 -1.859375 10.578125 -4.644531 C 10.578125 -7.414062 8.460938 -9.476562 5.660156 -9.476562 C 2.839844 -9.476562 0.722656 -7.429688 0.722656 -4.644531 C 0.722656 -1.859375 2.839844 0.207031 5.660156 0.207031 Z M 5.660156 -1.203125 C 3.664062 -1.203125 2.21875 -2.648438 2.21875 -4.644531 C 2.21875 -6.621094 3.664062 -8.066406 5.660156 -8.066406 C 7.636719 -8.066406 9.082031 -6.621094 9.082031 -4.628906 C 9.082031 -2.648438 7.636719 -1.203125 5.660156 -1.203125 Z M 5.660156 -1.203125 "/></g></g></g><g fill="#023047" fill-opacity="1"><g transform="translate(281.465276, 224.0404)"><g><path d="M 1.460938 0 L 2.925781 0 L 2.925781 -12.589844 L 1.460938 -12.589844 Z M 1.460938 0 "/></g></g></g><g fill="#023047" fill-opacity="1"><g transform="translate(285.042526, 224.0404)"><g><path d="M 5.417969 0.207031 C 7.945312 0.207031 9.546875 -1.410156 9.546875 -3.90625 L 9.546875 -9.289062 L 8.085938 -9.289062 L 8.085938 -4.144531 C 8.085938 -2.339844 7.085938 -1.203125 5.417969 -1.203125 C 3.785156 -1.203125 2.769531 -2.320312 2.769531 -4.144531 L 2.769531 -9.289062 L 1.308594 -9.289062 L 1.308594 -3.90625 C 1.308594 -1.410156 2.925781 0.207031 5.417969 0.207031 Z M 5.417969 0.207031 "/></g></g></g><g fill="#023047" fill-opacity="1"><g transform="translate(295.086704, 224.0404)"><g><path d="M 5.316406 -1.339844 C 4.042969 -1.339844 3.355469 -2.03125 3.355469 -3.285156 L 3.355469 -7.964844 L 6.277344 -7.964844 L 6.277344 -9.289062 L 3.355469 -9.289062 L 3.355469 -11.25 L 3.128906 -11.25 L 0.257812 -8.222656 L 0.257812 -7.964844 L 1.890625 -7.964844 L 1.890625 -3.234375 C 1.890625 -1.222656 3.128906 0 5.125 0 L 6.328125 0 L 6.328125 -1.339844 Z M 5.316406 -1.339844 "/></g></g></g><g fill="#023047" fill-opacity="1"><g transform="translate(301.071849, 224.0404)"><g><path d="M 1.410156 -10.886719 L 2.992188 -10.886719 L 2.992188 -12.554688 L 1.410156 -12.554688 Z M 1.460938 0 L 2.925781 0 L 2.925781 -9.289062 L 1.460938 -9.289062 Z M 1.460938 0 "/></g></g></g><g fill="#023047" fill-opacity="1"><g transform="translate(304.649098, 224.0404)"><g><path d="M 5.660156 0.207031 C 8.460938 0.207031 10.578125 -1.859375 10.578125 -4.644531 C 10.578125 -7.414062 8.460938 -9.476562 5.660156 -9.476562 C 2.839844 -9.476562 0.722656 -7.429688 0.722656 -4.644531 C 0.722656 -1.859375 2.839844 0.207031 5.660156 0.207031 Z M 5.660156 -1.203125 C 3.664062 -1.203125 2.21875 -2.648438 2.21875 -4.644531 C 2.21875 -6.621094 3.664062 -8.066406 5.660156 -8.066406 C 7.636719 -8.066406 9.082031 -6.621094 9.082031 -4.628906 C 9.082031 -2.648438 7.636719 -1.203125 5.660156 -1.203125 Z M 5.660156 -1.203125 "/></g></g></g><g fill="#023047" fill-opacity="1"><g transform="translate(315.157661, 224.0404)"><g><path d="M 6.105469 -9.476562 C 4.679688 -9.476562 3.492188 -8.859375 2.785156 -7.828125 L 2.511719 -9.289062 L 1.460938 -9.289062 L 1.460938 0 L 2.925781 0 L 2.925781 -5.058594 C 2.925781 -6.792969 4.144531 -8.152344 5.746094 -8.152344 C 7.34375 -8.152344 8.238281 -7.085938 8.238281 -5.210938 L 8.238281 0 L 9.703125 0 L 9.703125 -5.554688 C 9.703125 -7.828125 8.324219 -9.476562 6.105469 -9.476562 Z M 6.105469 -9.476562 "/></g></g></g><g fill="#023047" fill-opacity="1"><g transform="translate(325.373836, 224.0404)"><g><path d="M 4.402344 0.207031 C 6.605469 0.207031 8.085938 -0.910156 8.085938 -2.648438 C 8.085938 -4.917969 6.191406 -5.230469 4.59375 -5.488281 C 3.355469 -5.675781 2.289062 -5.867188 2.289062 -6.847656 C 2.289062 -7.65625 3.078125 -8.171875 4.335938 -8.171875 C 5.640625 -8.171875 6.433594 -7.621094 6.484375 -6.605469 L 7.859375 -6.605469 C 7.808594 -8.359375 6.46875 -9.476562 4.367188 -9.476562 C 2.269531 -9.476562 0.859375 -8.394531 0.859375 -6.792969 C 0.859375 -4.695312 2.648438 -4.367188 4.230469 -4.09375 C 5.488281 -3.886719 6.640625 -3.679688 6.640625 -2.582031 C 6.640625 -1.6875 5.726562 -1.136719 4.453125 -1.136719 C 3.148438 -1.136719 2.203125 -1.738281 2.132812 -2.839844 L 0.6875 -2.839844 C 0.773438 -0.964844 2.203125 0.207031 4.402344 0.207031 Z M 4.402344 0.207031 "/></g></g></g><g fill="#023047" fill-opacity="1"><g transform="translate(333.373246, 224.0404)"><g/></g></g></svg>